# xmcd
# 
# Track frame offsets:
#     150
#     13145
#     29195
#     43157
#     60172
#     75505
#     89205
#     103175
#     117640
#     131370
#     145890
#     163645
#     177207
#     193325
# 
# Disc length: 2751
# 
# Revision: 1
# Processed by: cddbd v1.5.2PL0 Copyright (c) Steve Scherf et al.
# Submitted via: BonkEnc v1.0.6
# 
DISCID=cb0abd0e
DTITLE=Varios - ¡Anímate!
DYEAR=1993
DGENRE=New Age
TTITLE0=Yuri/¡Qué numerito!
TTITLE1=Mijares/¡Quién eres!
TTITLE2=Tatiana/¡Qué bien estoy!
TTITLE3=Timbiriche/¡Qué onda contigo!
TTITLE4=Alejandra Ávalos/Perdonar
TTITLE5=Alejandro Ibarra/La receta maravillosa
TTITLE6=La Onda Vaselina/Los abrazos son mágicos
TTITLE7=Piro/Todos necesitamos de todos
TTITLE8=Las Gemelas/Me gusta
TTITLE9=¡Que viva, viva la vida!
TTITLE10=Laura Flores/¡Qué maravilla!
TTITLE11=Color-es/De buen humor
TTITLE12=Todos/Amar a la gente
TTITLE13=Varios/Únete a los optimistas
EXTD=
EXTT0=
EXTT1=
EXTT2=
EXTT3=
EXTT4=
EXTT5=
EXTT6=
EXTT7=
EXTT8=
EXTT9=
EXTT10=
EXTT11=
EXTT12=
EXTT13=
PLAYORDER=
